# xmcd
#
# Track frame offsets:
#	150
#	14310
#	33405
#	47992
#	62487
#	79647
#	100012
#	118435
#	132957
#	150687
#	166185
#	181790
#	199880
#	211312
#	228065
#	244915
#	266657
#	281285
#	295205
#	312667
#
# Disc length: 4449 seconds
#
# Revision: 1
# Processed by: cddbd v1.5PL3 Copyright (c) Steve Scherf et al.
# Submitted via: CDex 1.50Beta5
#
DISCID=18115f14
DTITLE=Various Artist - ルージュの伝言
DYEAR=1900
DGENRE=
TTITLE0=荒井 由実/ルージュの伝言
TTITLE1=荒井 由実/卒業写真
TTITLE2=荒井 由実/やさしさに包まれたなら
TTITLE3=ガロ/学生街の喫茶店
TTITLE4=ガロ/君の誕生日
TTITLE5=ハイ・ファイ・セット/フィーリング
TTITLE6=ハイ・ファイ・セット/冷たい雨
TTITLE7=ハイ・ファイ・セット/スカイ・レストラン
TTITLE8=サーカス/Mr.サマータイム
TTITLE9=サーカス/アメリカン・フィーリング
TTITLE10=赤い鳥/翼をください
TTITLE11=赤い鳥/紙風船
TTITLE12=赤い鳥/忘れていた朝
TTITLE13=荒井 由実/あの日にかえりたい
TTITLE14=荒井 由実/中央フリーウエイ
TTITLE15=荒井 由実/翳りゆく部屋
TTITLE16=ガロ/ロマンス
TTITLE17=ガロ/一枚の楽譜
TTITLE18=シーナ&ロケッツ/ユー・メイ・ドリーム
TTITLE19=三好 鉄生/涙をふいて
EXTD=
EXTT0=
EXTT1=
EXTT2=
EXTT3=
EXTT4=
EXTT5=
EXTT6=
EXTT7=
EXTT8=
EXTT9=
EXTT10=
EXTT11=
EXTT12=
EXTT13=
EXTT14=
EXTT15=
EXTT16=
EXTT17=
EXTT18=
EXTT19=
PLAYORDER=
